# Exported from Wings 3D 1.5.3
mtllib thrustFixer.mtl
o Cylinder1
#20 vertices, 12 faces
v 0.10000000 5.0000000e-2 0.0000000e+0
v 8.0901699e-2 5.0000000e-2 5.8778525e-2
v 3.0901699e-2 5.0000000e-2 9.5105652e-2
v -3.0901699e-2 5.0000000e-2 9.5105652e-2
v -8.0901699e-2 5.0000000e-2 5.8778525e-2
v -0.10000000 5.0000000e-2 1.2246468e-17
v -8.0901699e-2 5.0000000e-2 -5.8778525e-2
v -3.0901699e-2 5.0000000e-2 -9.5105652e-2
v 3.0901699e-2 5.0000000e-2 -9.5105652e-2
v 8.0901699e-2 5.0000000e-2 -5.8778525e-2
v 0.10000000 -5.0000000e-2 0.0000000e+0
v 8.0901699e-2 -5.0000000e-2 5.8778525e-2
v 3.0901699e-2 -5.0000000e-2 9.5105652e-2
v -3.0901699e-2 -5.0000000e-2 9.5105652e-2
v -8.0901699e-2 -5.0000000e-2 5.8778525e-2
v -0.10000000 -5.0000000e-2 1.2246468e-17
v -8.0901699e-2 -5.0000000e-2 -5.8778525e-2
v -3.0901699e-2 -5.0000000e-2 -9.5105652e-2
v 3.0901699e-2 -5.0000000e-2 -9.5105652e-2
v 8.0901699e-2 -5.0000000e-2 -5.8778525e-2
vn 0.88513142 0.46534113 -5.1663243e-17
vn 0.71608636 0.46534113 0.52026720
vn 0.27352065 0.46534113 0.84181001
vn -0.27352065 0.46534113 0.84181001
vn -0.71608636 0.46534113 0.52026720
vn -0.88513142 0.46534113 1.2915811e-16
vn -0.71608636 0.46534113 -0.52026720
vn -0.27352065 0.46534113 -0.84181001
vn 0.27352065 0.46534113 -0.84181001
vn 0.71608636 0.46534113 -0.52026720
vn 0.88513142 -0.46534113 -7.7494865e-17
vn 0.71608636 -0.46534113 0.52026720
vn 0.27352065 -0.46534113 0.84181001
vn -0.27352065 -0.46534113 0.84181001
vn -0.71608636 -0.46534113 0.52026720
vn -0.88513142 -0.46534113 1.0332649e-16
vn -0.71608636 -0.46534113 -0.52026720
vn -0.27352065 -0.46534113 -0.84181001
vn 0.27352065 -0.46534113 -0.84181001
vn 0.71608636 -0.46534113 -0.52026720
g Cylinder1_default
usemtl default
s 1
f 1//1 10//10 9//9 8//8 7//7 6//6 5//5 4//4 3//3 2//2
f 1//1 11//11 20//20 10//10
f 2//2 12//12 11//11 1//1
f 3//3 13//13 12//12 2//2
f 4//4 14//14 13//13 3//3
f 5//5 15//15 14//14 4//4
f 6//6 16//16 15//15 5//5
f 7//7 17//17 16//16 6//6
f 8//8 18//18 17//17 7//7
f 9//9 19//19 18//18 8//8
f 10//10 20//20 19//19 9//9
f 12//12 13//13 14//14 15//15 16//16 17//17 18//18 19//19 20//20 11//11
